<?xml version="1.0" standalone="no"?>
<!DOCTYPE svg PUBLIC "-//W3C//DTD SVG 20010904//EN"
 "http://www.w3.org/TR/2001/REC-SVG-20010904/DTD/svg10.dtd">
<svg version="1.0" xmlns="http://www.w3.org/2000/svg"
 width="700.000000pt" height="700.000000pt" viewBox="0 0 700.000000 700.000000"
 preserveAspectRatio="xMidYMid meet">
<metadata>
Created by potrace 1.14, written by Peter Selinger 2001-2017
</metadata>
<g transform="translate(0.000000,700.000000) scale(0.100000,-0.100000)"
fill="#000000" stroke="none">
<path d="M3875 6456 c-428 -70 -778 -293 -1012 -644 l-56 -83 -91 89 c-50 49
-120 108 -155 132 -293 197 -649 211 -1019 39 -450 -209 -858 -678 -1021
-1175 -62 -189 -75 -273 -75 -469 1 -151 4 -181 27 -270 32 -120 100 -265 167
-354 48 -65 182 -201 229 -234 l25 -16 -50 -53 c-76 -80 -136 -167 -192 -275
-154 -302 -191 -669 -106 -1052 33 -149 72 -257 145 -411 88 -182 174 -304
314 -446 131 -133 227 -202 371 -271 251 -119 556 -136 846 -47 14 4 23 -7 42
-50 70 -157 241 -348 392 -439 381 -227 904 -268 1418 -112 611 185 1039 591
1121 1062 8 47 15 103 15 125 0 33 3 38 18 34 96 -29 339 -34 458 -10 173 36
321 115 459 246 114 108 199 227 276 383 194 395 250 893 154 1370 -45 221
-134 445 -245 611 -70 105 -235 267 -331 327 -83 52 -213 107 -296 127 -29 6
-53 15 -53 19 0 4 9 48 20 98 88 405 8 797 -230 1125 -64 89 -210 233 -315
311 -175 130 -437 245 -680 297 -127 28 -446 36 -570 16z m-477 -2526 c91 -56
97 -182 13 -253 -72 -61 -184 -35 -228 53 -13 24 -23 55 -23 69 0 39 37 104
72 129 43 29 120 30 166 2z m105 -340 c39 -44 38 -110 -2 -150 -16 -16 -40
-32 -55 -36 -38 -9 -74 3 -107 36 -23 22 -29 38 -29 70 0 52 13 76 53 101 46
29 103 20 140 -21z m-325 -9 c48 -24 66 -45 93 -105 65 -147 -68 -309 -231
-281 -52 9 -117 59 -144 110 -43 82 -16 205 55 256 73 52 151 59 227 20z m689
-87 c66 -41 60 -154 -9 -190 -49 -25 -96 -18 -134 20 -65 65 -38 160 56 189
20 7 60 -2 87 -19z m-235 -180 c113 -79 124 -230 24 -322 -124 -114 -323 -42
-342 124 -8 63 8 114 49 161 70 80 186 95 269 37z m-404 -201 c65 -40 59 -153
-10 -189 -49 -25 -96 -18 -134 20 -65 65 -38 160 56 189 21 7 60 -2 88 -20z"/>
</g>
</svg>
