<svg width="24" height="26" viewBox="0 0 24 26" fill="none" xmlns="http://www.w3.org/2000/svg">
<path d="M12.0003 26.0001C12.1676 25.9979 12.3296 25.9405 12.4609 25.8366C12.9066 25.4801 23.1431 17.1749 23.1431 11.1429C23.1431 8.18765 21.9692 5.35342 19.8795 3.26373C17.7898 1.17404 14.9555 6.10352e-05 12.0003 6.10352e-05C9.04501 6.10352e-05 6.21078 1.17404 4.12109 3.26373C2.0314 5.35342 0.857422 8.18765 0.857422 11.1429C0.857422 17.1749 11.094 25.4801 11.5397 25.8366C11.671 25.9405 11.8329 25.9979 12.0003 26.0001ZM12.0003 6.68578C12.7349 6.68578 13.453 6.90361 14.0638 7.31175C14.6746 7.71988 15.1507 8.29997 15.4318 8.97867C15.713 9.65736 15.7865 10.4042 15.6432 11.1247C15.4999 11.8452 15.1461 12.507 14.6267 13.0265C14.1072 13.5459 13.4454 13.8997 12.7249 14.043C12.0044 14.1863 11.2576 14.1127 10.5789 13.8316C9.90019 13.5505 9.32009 13.0744 8.91196 12.4636C8.50383 11.8528 8.28599 11.1347 8.28599 10.4001C8.28599 9.41497 8.67732 8.47023 9.37388 7.77366C10.0704 7.0771 11.0152 6.68578 12.0003 6.68578Z" fill="white"/>
</svg>
