<svg width="21" height="21" viewBox="0 0 21 21" fill="none" xmlns="http://www.w3.org/2000/svg">
<path fill-rule="evenodd" clip-rule="evenodd" d="M1.2002 10.4999C1.2002 6.90474 1.2002 5.10717 2.05689 3.81243C2.43944 3.23427 2.93458 2.73912 3.51275 2.35657C4.80749 1.49988 6.60506 1.49988 10.2002 1.49988C13.7953 1.49988 15.5929 1.49988 16.8876 2.35657C17.4658 2.73912 17.9609 3.23427 18.3435 3.81243C19.2002 5.10717 19.2002 6.90474 19.2002 10.4999C19.2002 14.095 19.2002 15.8926 18.3435 17.1873C17.9609 17.7655 17.4658 18.2606 16.8876 18.6432C15.5929 19.4999 13.7953 19.4999 10.2002 19.4999C6.60506 19.4999 4.80749 19.4999 3.51275 18.6432C2.93458 18.2606 2.43944 17.7655 2.05689 17.1873C1.2002 15.8926 1.2002 14.095 1.2002 10.4999ZM14.8594 10.5001C14.8594 13.0734 12.7734 15.1595 10.2 15.1595C7.62671 15.1595 5.54063 13.0734 5.54063 10.5001C5.54063 7.92678 7.62671 5.8407 10.2 5.8407C12.7734 5.8407 14.8594 7.92678 14.8594 10.5001ZM10.2 13.5831C11.9027 13.5831 13.283 12.2028 13.283 10.5001C13.283 8.79741 11.9027 7.4171 10.2 7.4171C8.49734 7.4171 7.11703 8.79741 7.11703 10.5001C7.11703 12.2028 8.49734 13.5831 10.2 13.5831ZM15.0435 6.70143C15.6481 6.70143 16.1383 6.21126 16.1383 5.6066C16.1383 5.00195 15.6481 4.51178 15.0435 4.51178C14.4388 4.51178 13.9486 5.00195 13.9486 5.6066C13.9486 6.21126 14.4388 6.70143 15.0435 6.70143Z" fill="white"/>
</svg>
