<svg width="21" height="21" viewBox="0 0 21 21" fill="none" xmlns="http://www.w3.org/2000/svg">
<path d="M1.7998 3.4912C1.7998 2.91399 2.00251 2.4378 2.40791 2.06263C2.81331 1.68745 3.34035 1.49986 3.98899 1.49986C4.62607 1.49986 5.1415 1.68455 5.53533 2.05397C5.94073 2.43493 6.14343 2.93131 6.14343 3.54315C6.14343 4.09726 5.94653 4.55901 5.5527 4.92843C5.1473 5.30938 4.61448 5.49986 3.95424 5.49986H3.93687C3.2998 5.49986 2.78437 5.30938 2.39054 4.92843C1.99671 4.54748 1.7998 4.0684 1.7998 3.4912ZM2.02567 18.6427V7.07562H5.88282V18.6427H2.02567ZM8.01988 18.6427H11.877V12.1838C11.877 11.7798 11.9234 11.4681 12.016 11.2488C12.1782 10.8563 12.4243 10.5244 12.7544 10.2531C13.0846 9.98181 13.4986 9.84618 13.9967 9.84618C15.294 9.84618 15.9427 10.7177 15.9427 12.4609V18.6427H19.7998V12.0107C19.7998 10.3022 19.3944 9.00635 18.5836 8.12323C17.7728 7.24012 16.7014 6.79856 15.3693 6.79856C13.8751 6.79856 12.711 7.43925 11.877 8.72064V8.75527H11.8596L11.877 8.72064V7.07562H8.01988C8.04304 7.44502 8.05463 8.59364 8.05463 10.5215C8.05463 12.4493 8.04304 15.1564 8.01988 18.6427Z" fill="white"/>
</svg>
