<svg width="21" height="21" viewBox="0 0 21 21" fill="none" xmlns="http://www.w3.org/2000/svg">
<path d="M2.50345 9.9816C2.50345 9.9816 10.4644 6.71442 13.2254 5.56397C14.2838 5.10382 17.8732 3.63124 17.8732 3.63124C17.8732 3.63124 19.5298 2.98703 19.3917 4.55159C19.3457 5.19585 18.9776 7.45065 18.6095 9.88958C18.0572 13.3409 17.459 17.1142 17.459 17.1142C17.459 17.1142 17.367 18.1727 16.5847 18.3567C15.8024 18.5408 14.5139 17.7125 14.2838 17.5284C14.0997 17.3904 10.8325 15.3196 9.6361 14.3072C9.31397 14.0311 8.94585 13.479 9.68208 12.8347C11.3387 11.3161 13.3174 9.42943 14.5139 8.23299C15.0661 7.68076 15.6183 6.39229 13.3174 7.95684C10.0503 10.2117 6.82906 12.3285 6.82906 12.3285C6.82906 12.3285 6.09277 12.7886 4.71227 12.3745C3.33171 11.9604 1.72111 11.4081 1.72111 11.4081C1.72111 11.4081 0.616765 10.7179 2.50345 9.9816Z" fill="white"/>
</svg>
