<svg width="20" height="21" viewBox="0 0 20 21" fill="none" xmlns="http://www.w3.org/2000/svg">
<path fill-rule="evenodd" clip-rule="evenodd" d="M1 10.4998C1 5.53686 5.03698 1.49988 9.99993 1.49988V1.50003H10.0052C14.9681 1.50003 19.0051 5.53701 19.0051 10.5C19.0051 15.4627 14.9681 19.4999 10.0052 19.4999C8.17444 19.4999 6.47602 18.955 5.05281 18.0132L1.59252 19.1188L2.71424 15.775C1.63493 14.2934 1 12.468 1 10.4998ZM6.91537 5.62685C7.17983 5.6376 7.31213 5.65343 7.48669 6.07139C7.54308 6.20749 7.62055 6.39543 7.70544 6.60138C7.94721 7.18788 8.24921 7.92051 8.29617 8.01843C8.35964 8.15073 8.42325 8.33066 8.33321 8.50522C8.25444 8.67261 8.18486 8.75303 8.06902 8.88689C8.06034 8.89693 8.0514 8.90726 8.04217 8.91796C7.98555 8.98365 7.92992 9.04254 7.87442 9.10127C7.80025 9.17978 7.72633 9.25802 7.65065 9.35189C7.64853 9.35438 7.64641 9.35687 7.64428 9.35936C7.52439 9.50003 7.39409 9.65291 7.54492 9.91276C7.69828 10.172 8.22734 11.0343 9.00517 11.7273C9.92829 12.5483 10.6907 12.8566 11.0345 12.9956C11.0652 13.008 11.0925 13.0191 11.1163 13.029C11.3331 13.119 11.5925 13.0978 11.7512 12.9285C11.9233 12.743 12.1301 12.4529 12.3453 12.151C12.3817 12.0999 12.4183 12.0486 12.455 11.9973C12.6348 11.7433 12.8622 11.7115 13.1004 11.8014C13.3438 11.8861 14.6296 12.521 14.8941 12.6533C14.9481 12.6804 14.9983 12.7045 15.0447 12.7268C15.2252 12.8136 15.3462 12.8718 15.3967 12.9602C15.4603 13.0713 15.4603 13.5951 15.2433 14.209C15.0264 14.8225 14.1639 15.3307 13.4761 15.4788C13.0053 15.5793 12.3914 15.6588 10.3227 14.8016C7.87233 13.787 6.22987 11.4062 5.8958 10.9219C5.8692 10.8833 5.85089 10.8568 5.84113 10.8439C5.83741 10.8388 5.833 10.8328 5.82792 10.8258C5.65983 10.596 4.77242 9.38276 4.77242 8.12952C4.77242 6.87467 5.39226 6.24475 5.66985 5.96264C5.67786 5.9545 5.68559 5.94665 5.693 5.93909C5.90997 5.71689 6.26969 5.6164 6.61374 5.6164C6.71436 5.61689 6.81495 5.62038 6.91537 5.62685Z" fill="white"/>
</svg>
